PathFileType	4	(X/Y/Z)	C:/Users/opensim2020/Desktop/walking_exp_matlab/subject03_walking14_straight_03.trc																																																																																																																																											
DataRate	CameraRate	NumFrames	NumMarkers	Units	OrigDataRate	OrigDataStartFrame	OrigNumFrames																																																																																																																																							
100	100	8	47	mm	100	1608	215																																																																																																																																							
Frame#	Time	LFHD			RFHD			LBHD			RBHD			C7			T10			CLAV			STRN			RBAK			LSHO			LUPA			LELB			LFRM			LWRA			LWRB			LFIN			RSHO			RUPA			RELB			RFRM			RWRA			RWRB			RFIN			LASI			RASI			LPSI			RPSI			LTHI			LKNE			LTIB			LANK			LHEE			LTOE			RTHI			RKNE			RTIB			RANK			RHEE			RTOE			*39			*40			*41			*42			*43			*44			*45			*46		
		X1	Y1	Z1	X2	Y2	Z2	X3	Y3	Z3	X4	Y4	Z4	X5	Y5	Z5	X6	Y6	Z6	X7	Y7	Z7	X8	Y8	Z8	X9	Y9	Z9	X10	Y10	Z10	X11	Y11	Z11	X12	Y12	Z12	X13	Y13	Z13	X14	Y14	Z14	X15	Y15	Z15	X16	Y16	Z16	X17	Y17	Z17	X18	Y18	Z18	X19	Y19	Z19	X20	Y20	Z20	X21	Y21	Z21	X22	Y22	Z22	X23	Y23	Z23	X24	Y24	Z24	X25	Y25	Z25	X26	Y26	Z26	X27	Y27	Z27	X28	Y28	Z28	X29	Y29	Z29	X30	Y30	Z30	X31	Y31	Z31	X32	Y32	Z32	X33	Y33	Z33	X34	Y34	Z34	X35	Y35	Z35	X36	Y36	Z36	X37	Y37	Z37	X38	Y38	Z38	X39	Y39	Z39	X40	Y40	Z40	X41	Y41	Z41	X42	Y42	Z42	X43	Y43	Z43	X44	Y44	Z44	X45	Y45	Z45	X46	Y46	Z46	X47	Y47	Z47
																																																																																																																																														
27	0.26	-1150.56335	1615.55908	1362.12634	-1136.63855	1616.77515	1493.71582	-1263.95374	1544.4281	1377.42029	-1246.53467	1546.35608	1507.04736	-1273.23572	1407.87512	1427.38135	-1338.47314	1103.46436	1418.68469	-1151.51196	1327.39685	1417.93445	-1126.02087	1157.26758	1400.88171	-1329.27197	1236.72449	1519.995	-1199.76721	1377.08679	1267.42041	-1210.19861	1186.22656	1187.55078	-1192.83618	1065.02673	1176.521	-1125.04456	958.64954	1194.44629	-1061.69226	869.34424	1243.38843	-1083.14233	851.97498	1196.44678	-1025.44006	796.76093	1216.20776	-1186.7699	1345.87537	1581.65356	-1221.67554	1126.73889	1652.22876	-1231.57776	1015.2569	1669.80273	-1245.77454	878.68604	1677.73608	-1234.02307	776.40417	1650.69617	-1272.84473	781.68115	1690.07263	-1270.76636	705.83398	1682.09058	-1210.13367	915.50757	1289.67712	-1170.27014	936.8067	1519.96252	-1358.99109	955.16913	1364.60925	-1333.87488	974.03662	1508.54053	-1337.21179	628.94952	1258.01001	-1378.74231	454.44727	1279.85486	-1532.51086	322.79858	1293.15332	-1666.28503	165.69525	1342.68005	-1708.7019	165.11215	1387.63098	-1590.41565	32.84607	1345.44836	-1167.73877	654.73517	1591.18567	-1112.32983	488.24902	1549.30566	-1125.20508	294.21878	1567.49561	-1122.38452	75.37881	1533.36023	-1169.48425	40.08148	1487.0603	-984.34412	42.02618	1502.27209	NaN	NaN	NaN	-1238.22766	1654.69385	1424.72241	NaN	NaN	NaN	NaN	NaN	NaN	NaN	NaN	NaN	NaN	NaN	NaN	NaN	NaN	NaN	NaN	NaN	NaN
28	0.27	-1140.16785	1617.50732	1364.44482	-1125.97839	1618.45496	1496.0531	-1254.52698	1546.67139	1379.77869	-1236.14551	1548.30164	1509.38635	-1262.78772	1409.26807	1429.98035	-1327.20862	1105.08594	1420.53662	-1137.14124	1330.4563	1420.51099	-1114.44824	1159.56738	1402.54578	-1317.68933	1238.20691	1522.62219	-1189.90771	1379.87927	1269.84155	-1201.14624	1189.38721	1189.49268	-1184.9032	1068.14905	1177.95178	-1117.15857	961.8299	1194.64795	-1052.75232	873.04059	1242.23108	-1075.29175	854.80054	1196.11267	-1015.93774	801.4101	1214.52271	-1175.69214	1347.52954	1583.50488	-1208.88489	1128.13733	1653.72876	-1218.15381	1016.53271	1670.82898	-1231.57263	879.84308	1678.2865	-1219.30676	777.69281	1650.7334	-1257.83447	782.60333	1690.5199	-1255.94177	706.48633	1681.61206	-1198.3429	917.56116	1291.69995	-1158.94043	938.83728	1521.73181	-1347.40784	956.77179	1365.81128	-1322.65173	976.10425	1509.75513	-1320.65881	628.51782	1257.63879	-1359.20557	453.35794	1277.69592	-1514.88354	324.71869	1293.11731	-1652.15613	171.81154	1343.26611	-1693.54102	175.06497	1389.69275	-1584.6604	35.37648	1344.67615	-1158.3844	656.03857	1592.7738	-1106.5304	488.17938	1550.73291	-1121.92456	294.06903	1568.43201	-1122.17505	75.28983	1533.66992	-1169.49792	40.10098	1487.34106	-984.11725	41.77967	1502.50403	NaN	NaN	NaN	-1227.68958	1656.82776	1427.2085	NaN	NaN	NaN	NaN	NaN	NaN	NaN	NaN	NaN	NaN	NaN	NaN	NaN	NaN	NaN	NaN	NaN	NaN
29	0.28	-1129.9054	1619.23572	1366.73047	-1115.60449	1620.10132	1498.3446	-1244.47937	1548.72363	1382.03967	-1225.85193	1550.11133	1511.646	-1252.30432	1410.42017	1432.45349	-1316.06567	1106.59155	1422.39099	-1129.79224	1331.45398	1421.75757	-1103.2854	1161.57495	1404.02942	-1306.17761	1239.64124	1525.09485	-1180.1571	1382.52051	1272.15955	-1192.65405	1192.21094	1191.22595	-1177.27686	1071.15344	1179.30286	-1109.54773	964.59601	1194.74609	-1044.24133	876.14172	1241.15906	-1067.78809	857.30951	1195.72656	-1007.22174	805.18011	1212.65027	-1164.47351	1349.31311	1585.40601	-1195.95032	1129.42444	1655.21106	-1204.55322	1017.79163	1671.8374	-1216.86401	880.98224	1678.86267	-1204.2041	779.00159	1650.86548	-1242.55933	783.55884	1690.90881	-1240.4668	707.19324	1681.34045	-1187.0553	919.27759	1293.54846	-1147.87903	940.64685	1523.66675	-1336.26013	958.25562	1367.06274	-1311.61658	977.98383	1510.93652	-1303.85352	627.81897	1257.31482	-1338.30957	451.56097	1276.28589	-1496.08728	326.50656	1293.45007	-1637.31531	178.26804	1343.47522	-1677.91248	185.10233	1390.31775	-1581.07935	37.6302	1346.28015	-1150.8772	656.85919	1594.34509	-1101.68567	487.96066	1552.34985	-1119.0459	293.92767	1569.49377	-1122.14526	75.3186	1533.94006	-1169.47229	40.12159	1487.63843	-984.01758	41.56666	1502.61731	NaN	NaN	NaN	-1217.13391	1658.82397	1429.65369	NaN	NaN	NaN	NaN	NaN	NaN	NaN	NaN	NaN	NaN	NaN	NaN	NaN	NaN	NaN	NaN	NaN	NaN
30	0.29	-1119.60608	1620.9093	1368.96497	-1105.31201	1621.50378	1500.61841	-1234.40649	1550.5741	1384.22009	-1215.53296	1551.63928	1513.80359	-1241.99133	1411.65308	1434.78455	-1305.09326	1107.94934	1424.27991	-1119.14807	1333.11951	1423.36316	-1092.41199	1163.27539	1405.37683	-1294.77136	1240.95483	1527.48975	-1170.40063	1384.89075	1274.30701	-1184.20557	1194.87256	1192.90137	-1169.67468	1073.72363	1180.69556	-1102.03271	966.97559	1194.79907	-1036.09241	878.42004	1239.95081	-1060.69165	859.40076	1195.32739	-999.20648	808.11139	1210.6814	-1153.04553	1350.67419	1587.0686	-1182.9563	1130.56201	1656.56885	-1190.61047	1018.81946	1672.8103	-1201.80212	881.91809	1679.55505	-1188.36328	780.03082	1650.87061	-1226.45007	784.16852	1691.32397	-1224.34302	707.6889	1681.01123	-1175.93713	920.94275	1295.37305	-1137.14795	942.07373	1525.60596	-1325.401	959.51971	1368.41296	-1300.66956	979.55988	1512.31226	-1286.81177	626.96411	1257.0509	-1316.85364	449.93338	1274.75854	-1476.3385	328.28204	1293.23511	-1621.71875	185.198	1344.17749	-1661.64233	194.26065	1391.06897	-1567.3772	44.61998	1345.32788	-1145.07446	657.16315	1595.86816	-1097.42981	487.63504	1553.99878	-1116.58459	293.76471	1570.54663	-1121.96436	75.22368	1534.1217	-1169.46472	40.15237	1487.89307	-983.87402	41.37638	1502.75195	NaN	NaN	NaN	-1206.49512	1660.23889	1431.81189	NaN	NaN	NaN	NaN	NaN	NaN	NaN	NaN	NaN	NaN	NaN	NaN	NaN	NaN	NaN	NaN	NaN	NaN
31	0.3	-1109.30676	1622.52075	1371.09009	-1094.98621	1622.81873	1502.76758	-1224.06152	1552.16577	1386.24695	-1205.20837	1552.95776	1515.86121	-1231.52515	1413.0343	1436.98608	-1294.25061	1109.27954	1426.0188	-1108.36841	1334.60022	1424.86804	-1081.7771	1164.72839	1406.43176	-1283.53564	1242.17517	1529.76721	-1160.74829	1387.09595	1276.27954	-1175.75769	1197.24719	1194.57996	-1162.01575	1075.99402	1182.06763	-1094.75171	968.95441	1194.74524	-1028.1709	880.23291	1238.81323	-1053.8103	861.12787	1195.01086	-991.92432	810.19458	1208.62781	-1141.47009	1351.96045	1588.67139	-1169.96838	1131.58337	1658.0177	-1176.48181	1019.67133	1673.79407	-1186.32617	882.67743	1680.17395	-1172.29028	781.00262	1650.87158	-1209.62231	784.5274	1691.71069	-1207.72229	708.328	1680.98071	-1164.92468	922.38293	1297.06995	-1126.66736	943.20746	1527.53333	-1314.75659	960.53723	1369.79858	-1289.99976	980.91339	1513.67029	-1269.77795	626.0495	1257.11279	-1294.20593	447.99152	1274.01477	-1455.67139	330.08905	1292.70557	-1604.63452	192.16856	1345.95032	-1644.93823	201.59238	1392.65833	-1552.1521	50.30848	1346.21606	-1140.078	657.10956	1597.05591	-1093.52063	487.15851	1555.50537	-1114.63904	293.59268	1571.2074	-1121.81311	75.07845	1534.16895	-1169.48572	40.22637	1487.96887	-983.75446	41.24209	1502.80151	NaN	NaN	NaN	-1196.18396	1661.76111	1434.14172	NaN	NaN	NaN	NaN	NaN	NaN	NaN	NaN	NaN	NaN	NaN	NaN	NaN	NaN	NaN	NaN	NaN	NaN
32	0.31	-1099.14575	1624.08301	1373.09851	-1084.38513	1624.01672	1504.68042	-1213.91846	1553.69214	1388.1947	-1194.89148	1554.21362	1517.78833	-1221.07288	1414.44287	1439.00171	-1283.70325	1110.65173	1427.72205	-1097.84363	1335.99536	1426.0033	-1071.12305	1166.31348	1407.60669	-1272.573	1243.39868	1531.91602	-1151.08691	1388.97852	1277.9762	-1167.13184	1199.20496	1196.04919	-1154.41919	1077.88098	1183.28857	-1087.55444	970.48315	1194.65979	-1020.77264	881.3374	1237.62146	-1047.16797	862.56567	1194.2312	-985.43677	811.25867	1206.45923	-1130.17407	1353.1416	1590.07813	-1156.78674	1132.37024	1659.23157	-1162.24207	1020.41632	1674.8927	-1170.48364	883.29236	1680.6825	-1155.41418	782.00085	1651.10791	-1192.62012	784.90021	1692.07166	-1190.3009	708.64539	1680.7738	-1154.01978	923.77826	1298.65491	-1116.4491	943.75226	1529.43591	-1304.37769	961.29767	1371.05615	-1279.5918	982.05634	1515.08325	-1252.73828	625.49146	1257.18445	-1271.95374	447.14615	1272.71704	-1434.18274	332.15814	1292.79578	-1586.04456	197.9641	1347.48499	-1626.77356	207.56914	1394.15308	-1535.7301	55.01692	1348.93616	-1135.0343	657.05157	1598.078	-1089.83179	486.62079	1556.69299	-1113.36499	293.40506	1571.73157	-1122.01941	75.14738	1534.16797	-1169.55432	40.1763	1487.8783	-983.80212	41.15262	1502.78271	NaN	NaN	NaN	-1186.09338	1663.40515	1436.49744	NaN	NaN	NaN	NaN	NaN	NaN	NaN	NaN	NaN	NaN	NaN	NaN	NaN	NaN	NaN	NaN	NaN	NaN
33	0.32	-1089.06934	1625.72461	1374.96301	-1074.3241	1625.41504	1506.65918	-1203.66846	1555.16687	1390.06079	-1184.53992	1555.40393	1519.62158	-1210.60413	1415.96619	1440.85571	-1273.18799	1111.98425	1429.44238	-1087.55542	1337.34839	1427.26404	-1060.93823	1167.53467	1408.59912	-1261.84106	1244.61646	1533.9657	-1141.41919	1390.67224	1279.42566	-1158.68079	1200.8335	1197.45166	-1147.17395	1079.50476	1184.13037	-1080.56604	971.72638	1194.60388	-1013.88696	881.67749	1236.13818	-1041.09253	863.45886	1193.18359	-979.69916	811.51361	1204.2229	-1119.05493	1354.24988	1591.32654	-1143.51538	1133.03796	1660.47913	-1147.74158	1021.03064	1676.00073	-1154.38892	883.80682	1681.28906	-1138.64026	782.72314	1650.91577	-1175.00806	785.06049	1692.25562	-1172.34937	708.93005	1680.6427	-1142.36731	925.61121	1300.60144	-1106.49988	944.33582	1531.29932	-1294.13342	961.99261	1372.2948	-1269.37146	983.06757	1516.48059	-1235.92615	625.90778	1257.2478	-1248.95544	446.41885	1271.76355	-1411.88428	334.12283	1293.11792	-1565.67676	202.50226	1349.36865	-1607.0553	212.26086	1396.14111	-1515.37781	59.59892	1351.55701	-1125.9729	657.85791	1599.4187	-1086.14465	486.14566	1557.65979	-1112.21362	293.27997	1572.23853	-1122.20349	75.12447	1534.22522	-1169.77649	40.17093	1487.93555	-983.94104	41.13784	1502.80945	NaN	NaN	NaN	-1176.03186	1664.84204	1438.55347	NaN	NaN	NaN	NaN	NaN	NaN	NaN	NaN	NaN	NaN	NaN	NaN	NaN	NaN	NaN	NaN	NaN	NaN
34	0.33	-1078.82495	1627.34802	1376.79114	-1063.96326	1626.79529	1508.41357	-1193.38708	1556.52332	1391.81262	-1174.1261	1556.59534	1521.37292	-1199.96655	1417.52808	1442.63159	-1262.72058	1113.35291	1431.14868	-1077.17151	1338.75623	1428.48877	-1050.91663	1168.72009	1409.60718	-1251.21362	1245.8999	1535.94775	-1131.68359	1392.11096	1280.65845	-1150.35315	1202.31909	1198.7301	-1139.20947	1080.80432	1185.26318	-1073.82861	972.47168	1194.38062	-1007.19006	881.71405	1234.60718	-1035.48059	863.90088	1192.021	-974.77844	810.96527	1201.81641	-1107.77649	1355.29431	1592.62207	-1130.09351	1133.69519	1661.63013	-1133.07349	1021.48413	1676.72668	-1137.78809	884.21582	1681.71008	-1121.09229	783.50079	1650.86182	-1157.28601	785.27216	1692.69922	-1153.65942	709.24561	1680.69983	-1132.21448	926.86377	1301.53674	-1096.37561	944.84485	1533.09033	-1283.88806	962.57233	1373.43921	-1259.29346	983.94476	1517.70557	-1219.29016	626.966	1257.22217	-1226.28174	447.00937	1270.39417	-1388.9375	335.38416	1293.36377	-1543.78223	205.54311	1351.40088	-1585.81458	215.48888	1398.33044	-1491.33972	64.0043	1353.49536	-1119.34668	658.46906	1600.1781	-1082.64734	485.75748	1558.52039	-1110.91919	293.19409	1572.89075	-1122.41687	75.08395	1534.3811	-1169.90808	40.10093	1488.00024	-984.12799	41.16672	1502.91016	NaN	NaN	NaN	-1165.9209	1666.17212	1440.53479	NaN	NaN	NaN	NaN	NaN	NaN	NaN	NaN	NaN	NaN	NaN	NaN	NaN	NaN	NaN	NaN	NaN	NaN
